<svg version="1.1" id="Layer_1" xmlns="http://www.w3.org/2000/svg" xmlns:xlink="http://www.w3.org/1999/xlink" x="0px" y="0px"
	 width="100%" viewBox="0 0 1024 1024" enable-background="new 0 0 1024 1024" xml:space="preserve">
<path fill="#000000" opacity="1.000000" stroke="none" 
	d="
M655.884216,461.202698 
	C663.619568,463.686096 671.360779,463.445190 678.903625,464.585785 
	C683.823120,465.329651 688.860168,465.264038 693.831238,465.709045 
	C697.397583,466.028259 699.466431,464.419373 700.659851,461.203033 
	C705.581543,447.939087 710.721619,434.752289 715.385498,421.398834 
	C716.839478,417.235748 718.808655,414.855713 723.257202,415.971588 
	C727.573181,417.054199 728.996887,420.130157 728.011047,424.409424 
	C725.434631,435.593414 723.143433,446.853577 718.220154,457.348663 
	C715.674072,462.776154 716.902466,464.710754 722.767456,464.718903 
	C737.933228,464.739990 753.100891,464.585663 768.263550,464.800476 
	C772.375427,464.858734 774.406067,463.173645 775.497864,459.530365 
	C779.518311,446.113617 786.111328,433.642853 789.993164,420.169220 
	C791.038818,416.539978 793.624084,414.954742 797.277039,415.943146 
	C800.850891,416.910156 803.150269,419.078308 802.328552,423.250153 
	C800.074829,434.691742 797.458801,446.041016 792.649048,456.728424 
	C789.769409,463.127167 790.647461,464.713135 797.624878,464.716980 
	C821.290161,464.729980 844.955505,464.745300 868.620789,464.730103 
	C902.115479,464.708618 935.530029,466.296082 968.841125,469.819519 
	C975.164978,470.488403 981.278137,472.177429 986.931335,475.214478 
	C988.557068,476.087891 990.422424,477.151428 989.772217,479.365723 
	C989.021667,481.921631 986.882446,480.847809 985.137756,480.627747 
	C961.854004,477.691010 938.513855,475.522491 914.971191,475.297638 
	C916.170654,480.807007 915.973206,481.043640 910.552124,480.418823 
	C883.251709,477.272369 855.887878,475.408142 828.387634,474.944916 
	C816.553528,474.745544 804.768311,475.019592 792.959106,475.280975 
	C788.696716,475.375305 786.692261,477.117859 786.148438,481.439819 
	C784.776917,492.339661 782.652832,503.221436 785.281555,514.173828 
	C789.320312,531.001221 804.667603,538.574768 820.484070,531.569641 
	C823.810913,530.096191 826.969666,528.153442 829.996826,526.116272 
	C833.551636,523.724060 835.408997,520.646851 835.937866,515.896423 
	C837.135071,505.141937 843.067200,496.953491 852.768372,491.977905 
	C863.742126,486.349640 875.343506,484.154633 887.627014,486.743286 
	C895.751099,488.455383 898.241150,491.474884 898.416321,499.742828 
	C898.528748,505.053162 897.886169,510.389221 899.216003,515.666992 
	C900.488464,520.716614 903.485352,523.610291 908.592346,524.821411 
	C915.131775,526.372131 921.522156,525.340393 927.923096,524.302490 
	C930.572571,523.872925 933.096497,523.250427 933.759460,526.811218 
	C934.353394,530.001343 932.703857,531.885376 929.648438,532.584167 
	C913.921448,536.180847 898.319885,537.242981 883.304260,529.741394 
	C880.999512,528.589966 879.000854,528.554260 876.651184,529.324768 
	C864.563599,533.288330 852.418518,535.646545 840.172363,529.886902 
	C838.760315,529.222778 837.636719,529.424988 836.673767,530.697632 
	C831.149231,537.998413 823.247864,540.499207 814.662842,542.093323 
	C805.907227,543.719238 797.847412,543.031128 789.365601,539.681824 
	C773.305481,533.340088 764.414185,513.365051 767.064575,497.405579 
	C767.990295,491.831451 768.629395,486.210297 769.485291,480.623779 
	C769.953247,477.569305 768.678162,476.267395 765.685425,476.283203 
	C749.853882,476.366821 734.021973,476.409668 718.190491,476.505005 
	C714.622803,476.526489 712.455933,477.793335 711.867004,481.916199 
	C710.520447,491.343140 709.488525,500.757690 710.333130,510.266876 
	C711.947632,528.445740 728.494507,538.619751 745.458679,531.964050 
	C749.998779,530.182800 754.118713,527.716553 757.823425,524.535461 
	C759.161560,523.386414 760.290527,521.772705 762.565796,521.910828 
	C764.718079,525.237976 763.476501,528.307312 761.921326,531.258179 
	C760.813354,533.360596 758.999756,534.947083 756.953491,536.087891 
	C739.105042,546.038940 719.900085,546.311951 703.692444,532.171936 
	C702.572144,531.194580 701.752319,529.879578 700.672424,528.847534 
	C698.412903,526.688049 698.501465,522.032654 695.126404,521.710022 
	C692.215515,521.431763 689.124817,523.379944 686.071472,524.183838 
	C675.904785,526.860779 665.451416,527.854187 655.074890,529.261292 
	C651.391296,529.760864 648.008362,530.685547 644.737366,532.571838 
	C635.917236,537.658020 626.850281,542.150085 616.586121,543.759888 
	C612.492249,544.401917 608.595947,544.062378 604.747803,542.937378 
	C593.701843,539.707947 590.370117,529.963196 597.324036,520.711365 
	C603.689392,512.242676 612.718262,508.275421 622.949036,506.696503 
	C624.428406,506.468201 625.920959,506.271576 627.414307,506.197601 
	C636.256592,505.759552 644.886597,505.710449 650.008362,515.046082 
	C651.399414,517.581665 653.993042,519.242065 656.955688,519.486694 
	C669.217651,520.499329 681.232239,519.615234 693.030151,514.082947 
	C691.808716,502.831573 693.415466,491.665466 695.272705,480.529724 
	C695.750244,477.666687 694.310913,477.111481 691.951416,476.934448 
	C676.969299,475.810303 661.970825,476.080994 646.989685,476.639374 
	C619.627014,477.659271 592.418518,476.611816 565.454956,471.516144 
	C560.302673,470.542450 556.825989,467.276550 557.069336,463.848969 
	C557.281677,460.857483 562.170227,457.111542 566.401123,456.693085 
	C568.771667,456.458649 571.179504,456.618439 573.240234,457.731750 
	C582.444824,462.704376 592.624268,463.411285 602.672363,464.408936 
	C611.764832,465.311707 620.892822,466.289124 630.064941,465.648560 
	C633.247559,457.867828 639.581238,454.320404 649.086060,458.298126 
	C651.236023,459.197876 653.374634,460.124939 655.884216,461.202698 
M859.450073,503.051117 
	C857.940002,507.068146 855.519287,510.788239 855.327454,515.236633 
	C855.180786,518.638733 856.198608,521.548279 859.555847,522.996521 
	C862.965637,524.467407 866.034180,523.693848 868.706360,521.146729 
	C870.832397,519.120239 871.741089,516.454712 872.781494,513.819458 
	C874.105408,510.466278 874.868652,506.788849 878.327454,504.641479 
	C880.147278,503.511688 882.180969,502.068726 881.588989,499.539581 
	C880.924866,496.701813 878.246460,495.987854 875.826965,495.461182 
	C868.874878,493.947998 864.122070,497.726135 859.450073,503.051117 
M611.429810,522.935669 
	C611.549377,527.364502 612.758484,531.390686 617.305969,532.967163 
	C621.972229,534.584778 626.848816,535.087097 630.941650,531.312683 
	C634.587708,527.950256 634.203125,525.628479 629.834473,523.236816 
	C627.065735,521.721130 623.876892,521.226013 621.221252,519.348633 
	C615.972656,515.638123 614.725830,516.083008 611.429810,522.935669 
z"/>
<path fill="#000000" opacity="1.000000" stroke="none" 
	d="
M191.954468,518.918945 
	C199.117722,533.377930 212.293961,537.802429 226.957962,530.998840 
	C231.384995,528.944885 235.321075,526.191040 238.919846,522.919617 
	C239.790833,522.127869 240.739441,521.313721 242.019012,521.983826 
	C243.259109,522.633362 243.236404,523.893494 243.191971,525.056091 
	C243.026733,529.380005 240.980164,532.851990 237.499680,535.124207 
	C219.848999,546.647827 195.636246,547.227234 180.595551,529.052856 
	C174.020157,521.107544 170.499207,511.074188 172.035553,500.136505 
	C172.867584,494.213135 173.633484,488.279724 174.538208,482.367523 
	C175.160889,478.298248 174.189575,476.104584 169.429367,476.201813 
	C150.610855,476.586243 131.786911,476.426147 112.962479,476.711914 
	C89.830780,477.063049 66.707909,476.054962 43.917110,471.343781 
	C40.089207,470.552490 37.298531,468.585724 36.836594,464.687714 
	C36.389214,460.912537 39.467453,459.212769 42.328938,457.748657 
	C45.669769,456.039337 49.261093,456.081848 52.471672,457.724792 
	C65.993912,464.644470 80.864876,464.401337 95.333847,465.500153 
	C120.427399,467.405823 145.619232,466.468353 170.771011,466.692261 
	C175.885574,466.737823 179.032455,464.775299 180.477783,459.963257 
	C184.554138,446.391357 191.205750,433.766083 195.096985,420.122528 
	C196.146164,416.443909 198.892303,415.056976 202.457199,415.934937 
	C206.055054,416.821045 208.237610,418.864990 207.453003,423.162811 
	C205.385437,434.488403 202.681046,445.636627 198.069702,456.205902 
	C194.804825,463.689026 195.321503,464.720520 203.582138,464.720734 
	C229.908569,464.721405 256.235504,464.610931 282.561279,464.742676 
	C313.369965,464.896851 344.115906,466.453613 374.749451,469.803955 
	C380.881134,470.474579 386.844818,472.159729 392.320923,475.168152 
	C393.952393,476.064484 395.636627,477.201233 395.036682,479.422882 
	C394.330872,482.036499 392.160645,481.124573 390.458099,480.890076 
	C364.211395,477.275482 337.825073,475.933746 311.353851,475.135681 
	C281.367981,474.231720 251.392471,474.074463 221.407166,474.357544 
	C213.255234,474.434479 205.109497,475.053802 196.957855,475.335968 
	C194.021759,475.437653 191.962631,476.858551 191.593414,479.601105 
	C189.845444,492.585602 186.956635,505.610321 191.954468,518.918945 
z"/>
<path fill="#000000" opacity="1.000000" stroke="none" 
	d="
M559.389954,503.515289 
	C554.775085,513.746826 555.988281,523.583618 562.162781,529.317749 
	C566.590332,533.429565 571.525085,534.834778 577.321106,532.928589 
	C579.216980,532.305054 581.089355,531.570679 583.027344,531.125671 
	C584.993896,530.674133 587.193481,528.613953 588.988281,530.850586 
	C590.685425,532.965637 589.271729,535.302979 588.315308,537.406799 
	C587.160645,539.946777 585.102478,541.690308 582.676331,542.874878 
	C573.208130,547.497925 563.312012,548.750366 553.070496,546.065491 
	C548.189392,544.785828 544.182800,542.022461 542.155701,537.276062 
	C540.491577,533.379639 537.878418,532.845886 534.146729,533.623230 
	C521.900085,536.174316 509.488190,536.797119 497.764130,532.069092 
	C491.359222,529.486206 485.858093,528.935486 479.308685,531.163818 
	C471.034332,533.979004 462.338196,534.459473 453.753418,531.807678 
	C445.669769,529.310669 443.866486,526.682617 444.401123,518.363464 
	C445.118011,507.208069 450.341949,498.594147 459.831696,492.986145 
	C471.761627,485.936066 484.715637,483.863403 498.321991,487.008820 
	C504.602997,488.460815 507.216858,491.860138 507.336029,498.338623 
	C507.394196,501.502655 507.361115,504.668518 507.357910,507.833557 
	C507.345367,520.291748 511.393890,524.664307 523.750183,525.473755 
	C524.905701,525.549500 526.082825,525.490906 527.236572,525.368958 
	C536.551392,524.384277 536.138062,524.287781 538.053162,515.246094 
	C540.508728,503.652802 545.457825,493.523499 557.083984,488.109619 
	C563.238342,485.243713 569.277954,484.924988 575.361328,487.892181 
	C581.749817,491.008209 584.244263,500.787292 580.324219,506.471283 
	C578.421570,509.230042 575.740906,509.550812 572.816101,509.246826 
	C570.191833,508.974091 569.205139,507.033905 568.874756,504.767639 
	C568.514221,502.294495 568.729858,499.347473 565.557373,498.774384 
	C562.341431,498.193481 561.056213,501.005402 559.389954,503.515289 
M470.847656,500.375244 
	C467.034515,504.174744 465.578766,509.161407 464.421936,514.131042 
	C463.573364,517.776489 464.790375,521.107483 468.484863,522.877075 
	C472.413452,524.758789 475.513275,523.206970 478.220093,520.270569 
	C480.321533,517.990906 481.120148,515.069397 482.111237,512.278931 
	C483.307556,508.910553 485.027405,506.151062 487.995148,503.928864 
	C491.909760,500.997711 491.379944,498.184052 486.847351,496.240204 
	C480.827911,493.658661 475.896027,495.919373 470.847656,500.375244 
z"/>
<path fill="#000000" opacity="1.000000" stroke="none" 
	d="
M427.858459,587.647827 
	C429.355286,586.055176 430.772339,585.454407 432.864349,586.324524 
	C433.345276,589.858154 429.877563,591.640320 428.943695,594.903442 
	C434.150360,596.827637 439.723389,594.630798 445.205231,596.356567 
	C443.436981,598.905823 441.095001,598.056274 439.139832,598.059204 
	C426.087372,598.078857 426.069153,598.032654 419.584900,609.354736 
	C418.459229,611.320251 417.020721,613.181213 416.695770,615.904358 
	C421.476959,614.453308 424.173126,610.846741 427.153229,607.603210 
	C429.175262,605.402466 430.974487,602.856384 433.983582,601.936096 
	C435.869995,601.359192 438.018982,600.857666 439.526703,602.773926 
	C440.865204,604.475037 440.189850,606.323608 439.232819,607.919434 
	C437.725342,610.433105 436.029968,612.834229 434.153809,615.677490 
	C442.240082,613.038025 445.198975,603.798767 454.359619,601.257996 
	C452.822601,607.598145 448.132202,610.679871 446.997864,615.593994 
	C453.230103,614.461609 459.233246,606.992615 458.373993,601.409790 
	C458.025726,599.147034 459.377014,597.993652 460.959198,597.024597 
	C462.533539,596.060303 464.369324,595.132080 466.132751,596.169373 
	C468.397644,597.501526 466.257324,599.461365 466.426392,601.113403 
	C472.508484,603.715637 472.501007,603.787598 468.841492,609.526184 
	C467.616974,611.446472 465.785828,613.067444 465.412628,616.498230 
	C469.984192,614.690735 472.772339,611.685425 475.234283,608.305664 
	C478.003693,604.503845 481.308472,601.685669 486.328705,601.703552 
	C488.060028,601.709717 489.735779,601.944702 490.599152,603.685791 
	C491.584869,605.673645 490.482513,607.245850 489.250397,608.639404 
	C487.539551,610.574402 485.147919,611.392944 482.829315,612.348083 
	C481.242218,613.001770 479.099396,612.974060 478.498596,615.526611 
	C481.793396,618.161499 484.226685,615.483032 486.790405,614.134705 
	C489.561279,612.677612 490.967651,609.390076 494.525391,608.864441 
	C491.951660,613.612488 488.014862,616.956604 482.872955,618.715515 
	C479.067444,620.017273 475.263214,620.035095 472.581909,615.982117 
	C470.238617,617.045410 468.066406,618.230713 465.757782,619.013977 
	C463.982025,619.616394 462.061249,619.431458 460.697021,617.843445 
	C459.246887,616.155273 460.032867,614.453552 460.776154,612.717102 
	C461.912354,610.062622 464.503754,608.158936 465.062500,605.078430 
	C462.445679,604.154114 462.003540,606.228210 461.008514,607.348022 
	C457.583496,611.202698 454.453156,615.407471 449.874329,617.997498 
	C445.475494,620.485657 442.895020,619.530945 440.880310,614.897156 
	C439.194214,615.958862 437.604980,617.159729 435.847382,618.014404 
	C433.766571,619.026184 431.330841,620.279541 429.433502,618.018555 
	C427.725494,615.983215 429.216003,613.932007 430.366241,612.084534 
	C431.734070,609.887512 433.734100,608.046875 434.544769,604.875305 
	C431.573486,605.523071 430.391907,607.596619 428.971527,609.270447 
	C426.040649,612.724487 422.913513,615.943359 418.851440,618.061584 
	C415.588837,619.762817 412.480743,620.194763 410.379272,616.324890 
	C402.583405,620.545044 400.862213,620.400940 397.818665,615.188599 
	C395.818481,616.305786 393.857544,617.518311 391.793274,618.517456 
	C390.079926,619.346741 388.205688,619.672974 386.702545,618.080078 
	C385.092987,616.374329 386.031189,614.623230 387.006622,613.056091 
	C388.645996,610.422302 390.419952,607.872192 392.542999,604.676147 
	C389.126526,605.277649 388.017365,608.018799 385.638947,608.710510 
	C383.938019,607.705750 386.178101,606.758362 385.588104,605.603516 
	C382.455719,603.781738 380.655334,605.234436 378.363861,607.887756 
	C371.214783,616.165894 370.747467,626.847351 367.364563,636.465149 
	C364.263062,645.283020 360.745056,653.898621 355.820496,661.876282 
	C354.949646,663.287048 354.013000,664.721313 352.834503,665.863953 
	C350.789520,667.846741 348.928314,671.421936 345.500763,669.406677 
	C342.369720,667.565735 343.513519,664.034729 344.388702,661.209534 
	C348.110779,649.194885 354.236145,638.288757 360.335876,627.386353 
	C362.530487,623.463745 365.920990,619.915588 367.021271,615.737183 
	C369.264221,607.219543 374.919525,601.535828 380.390045,595.222412 
	C385.686890,589.109497 389.520569,581.718018 395.246094,575.828369 
	C397.340027,573.674500 399.488281,571.597107 402.399139,570.508423 
	C404.386108,569.765259 406.304169,569.333679 407.881592,571.205566 
	C409.297821,572.886169 408.744080,574.692383 407.822174,576.339172 
	C405.280701,580.879089 401.908813,584.782959 398.285614,588.484924 
	C393.564514,593.308594 388.292816,597.519348 382.469177,601.856018 
	C385.960297,603.646240 388.562164,602.826843 391.256805,601.907837 
	C393.152130,601.261475 395.375824,600.829346 396.790100,602.731445 
	C398.152771,604.564026 397.370819,606.580872 396.263031,608.337158 
	C394.880310,610.529236 393.396271,612.657410 391.532532,615.447021 
	C399.574677,612.425293 402.930969,603.985596 410.790741,601.989746 
	C409.968872,607.338013 405.713287,610.631836 404.039978,616.303284 
	C412.638000,612.846558 415.961884,605.825256 419.923157,599.005249 
	C418.099152,597.304749 415.126709,599.011963 412.833160,595.794861 
	C420.422974,596.996460 424.760834,593.634949 427.858459,587.647827 
M357.847748,642.321838 
	C354.374756,649.354980 350.242126,656.129150 349.415009,664.236511 
	C359.799408,653.546021 363.558228,639.715881 367.147675,625.767700 
	C364.165039,631.068726 361.182404,636.369812 357.847748,642.321838 
M397.057495,579.541870 
	C393.896576,584.159912 390.735657,588.777954 387.033539,594.186707 
	C395.829163,589.454468 403.415039,579.615356 403.156464,573.659790 
	C400.307587,574.538025 399.056000,576.947815 397.057495,579.541870 
M481.689209,609.889893 
	C484.121674,608.981445 486.051117,607.705139 486.236664,604.013000 
	C483.043518,605.534851 481.219269,606.977722 481.689209,609.889893 
z"/>
<path fill="#000000" opacity="1.000000" stroke="none" 
	d="
M308.641174,536.921509 
	C295.649292,538.884888 283.086029,540.098022 270.666809,536.162659 
	C262.302002,533.512024 254.531311,529.781128 248.832764,522.796692 
	C244.486359,517.469604 243.244583,511.293274 245.829651,504.977203 
	C249.819611,495.228607 255.732712,487.239319 267.324402,485.889099 
	C272.672668,485.266113 278.154816,484.565002 282.070953,489.488220 
	C286.024353,494.458313 286.511871,500.096222 284.507446,506.003265 
	C282.760406,511.151703 279.667969,515.574646 276.021210,519.430969 
	C272.491455,523.163696 274.079285,525.255188 277.599060,526.998169 
	C284.748779,530.538696 292.355255,532.209106 300.333679,531.447449 
	C309.036255,530.616760 317.277466,528.158875 325.017609,523.987671 
	C329.633026,521.500366 334.599548,521.906921 335.107422,524.763000 
	C335.926453,529.369141 331.998352,530.407959 328.857300,531.862061 
	C322.575653,534.770020 315.725739,535.413025 308.641174,536.921509 
M269.022980,494.900299 
	C267.805695,494.216034 266.793365,494.674652 265.865479,495.491394 
	C262.464966,498.484558 262.061310,508.477936 265.181580,512.252502 
	C269.978119,507.891968 271.733032,501.146973 269.022980,494.900299 
z"/>
<path fill="#000000" opacity="1.000000" stroke="none" 
	d="
M395.652649,493.709351 
	C396.122375,496.579407 396.373810,499.059723 396.774597,501.515625 
	C397.397705,505.334045 399.578827,506.421234 403.252869,505.297699 
	C417.446167,500.957184 420.811981,503.974487 418.765411,518.742798 
	C418.220123,522.677490 418.067566,526.725159 418.277161,530.692322 
	C418.589081,536.597229 421.407318,539.011780 427.209351,538.921204 
	C429.233887,538.889648 431.438568,538.538757 432.464447,540.768372 
	C433.503143,543.025940 432.191895,544.966125 430.901520,546.731079 
	C426.187775,553.178467 419.695312,555.041138 411.967773,552.218506 
	C407.008209,550.406799 403.361694,542.467407 403.968781,534.650269 
	C404.226410,531.333191 404.574036,528.020935 404.971649,524.717407 
	C405.378876,521.334167 404.098297,519.999573 400.681580,520.804626 
	C398.254425,521.376526 395.804077,522.093811 393.340088,522.202759 
	C390.338379,522.335388 386.559357,524.449951 384.479584,521.144958 
	C382.049469,517.283203 379.225067,513.082153 380.256165,508.156860 
	C381.383057,502.773865 383.537445,497.635864 386.217987,492.838470 
	C388.842438,488.141388 392.872314,488.470276 395.652649,493.709351 
z"/>
<path fill="#000000" opacity="1.000000" stroke="none" 
	d="
M365.049988,503.717651 
	C368.425049,505.166534 369.253571,507.571594 369.395142,510.690765 
	C369.646271,516.223206 368.352417,521.610535 368.234192,527.091675 
	C368.041473,536.024658 370.138763,538.338379 378.813904,538.876770 
	C382.715240,539.118896 383.867401,540.915588 382.394958,544.461121 
	C379.822083,550.656494 373.789490,554.021118 366.661560,553.236084 
	C360.097290,552.513062 355.712219,548.234863 354.786804,541.225647 
	C354.109680,536.096741 354.445465,530.949768 355.294464,525.831299 
	C356.047394,521.291870 354.708130,520.095032 350.134247,521.018677 
	C348.342041,521.380554 346.556793,522.094910 344.769104,522.092468 
	C341.418945,522.088013 337.307220,524.893860 334.868439,521.556519 
	C331.876923,517.462830 329.418640,512.612793 330.771637,507.113831 
	C332.006897,502.093353 334.153870,497.387268 336.497253,492.785919 
	C337.684662,490.454346 339.591827,489.344269 342.218750,489.748962 
	C345.056946,490.186218 345.837494,492.412476 346.264282,494.779327 
	C346.647461,496.904144 346.759491,499.077332 347.129578,501.205109 
	C347.916656,505.730804 349.691315,506.768829 354.103516,505.103668 
	C357.538757,503.807251 360.861328,502.148193 365.049988,503.717651 
z"/>
<path fill="#000000" opacity="1.000000" stroke="none" 
	d="
M576.152832,608.196167 
	C572.579895,612.180237 569.205688,615.898193 564.664917,618.198730 
	C562.584290,619.252808 560.156738,620.241577 558.157288,618.273499 
	C556.179565,616.326843 557.676880,614.177429 558.641235,612.316162 
	C560.930054,607.898987 563.377686,603.564209 565.789795,599.143555 
	C564.304443,597.030701 561.433105,599.019348 559.984253,597.079224 
	C560.051880,596.784180 560.146057,596.228333 560.199036,596.232178 
	C566.817383,596.718628 570.893860,593.253601 573.939941,587.798828 
	C574.940918,586.006287 576.812805,585.021240 579.170837,586.438904 
	C579.365173,589.917969 575.728088,591.610901 575.191650,595.079773 
	C580.251770,596.589844 585.629272,594.915833 591.107971,596.183350 
	C589.044739,600.071045 583.304382,595.920288 582.194885,600.830994 
	C594.112793,606.250427 579.933411,610.393311 582.024597,615.738770 
	C585.706543,615.656921 588.044067,612.275024 589.867371,609.797424 
	C596.020630,601.435852 604.134277,600.871399 613.744080,602.571106 
	C612.653503,607.630310 607.525635,610.641785 606.575867,616.182129 
	C611.470703,614.831848 614.142090,611.305664 616.925171,608.196838 
	C621.094971,603.539124 625.669678,600.484070 632.193481,602.062805 
	C633.738159,602.436707 634.926270,602.180786 635.426147,600.661804 
	C636.723572,596.719482 638.269592,592.771240 637.476135,588.498779 
	C636.106201,581.122131 630.220642,578.098816 623.185730,581.305420 
	C620.421753,582.565308 617.921082,584.402954 614.886475,586.226257 
	C616.340149,581.369446 622.351746,577.813721 628.375488,577.716919 
	C634.698914,577.615356 639.377991,580.608521 641.278870,585.971313 
	C645.188049,597.000244 635.326477,615.966003 624.099670,619.010315 
	C619.881042,620.154236 617.376953,619.221558 614.110291,615.164734 
	C609.955139,617.527832 605.999023,621.430481 600.594238,617.837097 
	C599.676758,617.227051 598.731750,618.208557 597.826965,618.567871 
	C593.998779,620.088501 590.655457,619.760559 588.247681,615.782654 
	C586.108398,616.880005 584.149048,618.119934 582.022095,618.906311 
	C580.111938,619.612549 577.975464,619.649902 576.530762,617.802917 
	C575.229065,616.138794 575.915039,614.388489 576.624695,612.622559 
	C577.654907,610.058960 580.251404,608.309509 580.640686,605.034302 
	C578.058411,604.687073 577.531311,606.781677 576.152832,608.196167 
M563.464233,613.323120 
	C563.200317,614.048889 562.936401,614.774597 562.580933,615.752075 
	C567.180054,613.915771 573.001831,608.979431 574.766907,605.653809 
	C576.260376,602.839966 572.890564,601.098511 573.311584,598.349731 
	C569.258118,602.731079 566.655701,607.844971 563.464233,613.323120 
M623.053406,616.577942 
	C626.925110,614.981506 628.709045,611.596802 630.269653,608.057190 
	C630.744995,606.979126 631.012390,605.720398 629.964050,604.812195 
	C628.924072,603.911255 627.761475,604.338196 626.719971,604.955322 
	C623.401672,606.921509 621.307190,609.861450 620.296936,613.521912 
	C619.854004,615.126831 620.220337,616.563965 623.053406,616.577942 
M597.655945,608.218384 
	C596.287903,610.695618 593.674744,612.748962 594.856323,616.617188 
	C598.244873,616.105835 600.402893,614.028870 602.107849,611.684509 
	C603.655518,609.556519 607.231018,606.861267 604.871704,604.586914 
	C602.373535,602.178650 600.206848,606.066528 597.655945,608.218384 
z"/>
<path fill="#000000" opacity="1.000000" stroke="none" 
	d="
M353.210754,610.280640 
	C354.333618,609.374451 354.889648,608.119690 356.326599,608.470459 
	C353.871399,617.688843 341.100403,622.236389 334.450439,616.164429 
	C332.088074,617.160156 329.732574,618.337402 327.254333,619.131653 
	C325.646240,619.646973 323.906860,619.359131 322.678986,617.916626 
	C321.374268,616.383972 321.840759,614.731873 322.696259,613.259094 
	C324.275879,610.539856 326.015961,607.913818 328.184265,604.460571 
	C322.385376,607.977844 318.341766,612.263306 314.206543,616.422241 
	C312.235046,618.405029 310.361786,620.213318 307.314545,618.293579 
	C306.017822,617.476624 304.763428,618.459045 303.509644,618.805298 
	C301.720673,619.299255 299.782257,619.854858 298.410522,618.157593 
	C297.091766,616.525879 297.689362,614.626099 298.562897,612.974731 
	C300.663513,609.003418 302.885376,605.096436 305.032043,601.149231 
	C305.407990,600.458008 305.656219,599.697205 305.931885,599.043396 
	C304.175507,597.343018 301.677185,598.780884 300.228149,597.029907 
	C300.318390,596.739197 300.424438,596.191467 300.496155,596.195984 
	C306.806946,596.588440 311.102997,593.831726 313.887115,588.176453 
	C314.884552,586.150330 316.841278,585.081543 319.299683,586.367310 
	C319.667908,589.884033 316.080963,591.484070 315.718597,594.813110 
	C318.944122,596.350769 321.434326,595.940552 323.662292,592.755737 
	C328.437256,585.929993 333.342896,579.143921 339.821381,573.801636 
	C342.784698,571.357971 346.469513,567.420410 350.242493,571.065552 
	C354.054291,574.748291 349.708099,578.107544 347.415710,580.771729 
	C340.696625,588.580566 333.407776,595.849060 324.877960,601.745483 
	C323.798431,602.491760 322.511993,603.009033 321.762329,604.958191 
	C324.108032,603.825378 325.995483,602.684875 328.035828,601.999390 
	C329.737396,601.427734 331.773132,601.077454 333.128204,602.777100 
	C334.534698,604.541260 333.485474,606.251160 332.496368,607.823181 
	C330.862091,610.420593 328.460175,612.575317 327.374939,616.488770 
	C331.720062,614.436768 334.632629,611.961304 336.938232,608.707642 
	C339.209015,605.503174 341.968109,602.812866 345.897247,601.934387 
	C348.294006,601.398560 351.211884,600.914856 352.547943,603.751892 
	C353.907684,606.639282 351.610718,608.499146 349.577728,609.883240 
	C347.680542,611.175049 345.414154,611.928528 343.299225,612.894775 
	C342.132996,613.427551 340.597504,613.524414 340.573212,616.059753 
	C346.216888,617.596069 349.422333,613.626038 353.210754,610.280640 
M303.496246,613.990906 
	C304.925903,615.415649 304.957855,615.461548 306.704010,614.246582 
	C312.296143,610.355530 315.732666,604.801086 318.920959,598.815552 
	C314.853882,597.152100 312.279663,598.325317 310.408875,601.781494 
	C308.276886,605.720337 305.979004,609.569397 303.496246,613.990906 
M333.453461,586.930542 
	C331.829559,589.434082 330.205627,591.937683 328.581726,594.441223 
	C336.109406,588.615723 343.941132,583.174622 346.391174,573.450867 
	C340.572296,576.256470 337.478516,581.543030 333.453461,586.930542 
M346.101318,604.890076 
	C344.344940,606.276123 342.966614,607.896362 342.136078,610.516052 
	C344.886902,609.631470 346.851501,608.756104 347.930573,606.694641 
	C348.608093,605.400330 348.529388,604.389282 346.101318,604.890076 
z"/>
<path fill="#000000" opacity="1.000000" stroke="none" 
	d="
M942.216919,432.868591 
	C938.898132,432.249176 938.938293,429.975800 938.925354,427.779816 
	C938.898926,423.297729 938.917419,418.815338 938.917419,412.812531 
	C937.235474,419.271179 935.852051,424.267365 934.656616,429.308136 
	C934.062195,431.814117 932.698425,432.987671 930.144165,432.994080 
	C927.532349,433.000641 926.252136,431.660400 925.683533,429.216309 
	C924.518616,424.209778 923.235046,419.230865 921.284790,414.235046 
	C921.284790,418.858917 921.260742,423.482941 921.294495,428.106567 
	C921.312622,430.593903 921.212341,432.899323 917.816528,432.907928 
	C914.684265,432.915833 913.912537,431.006531 913.918762,428.333344 
	C913.937805,420.181061 913.929810,412.028687 913.917236,403.876343 
	C913.913269,401.325165 914.373169,399.009796 917.571167,399.099701 
	C920.647827,399.186218 924.510864,397.611023 925.737061,402.452057 
	C927.069153,407.710815 928.503357,412.943726 930.191467,419.314178 
	C931.866882,413.117249 933.456299,408.101227 934.543213,402.978577 
	C935.655762,397.735168 939.554626,399.137268 942.833801,399.089844 
	C946.562378,399.035889 946.327332,401.792389 946.320251,404.357178 
	C946.298157,412.343231 946.269470,420.329742 946.332886,428.315338 
	C946.353943,430.961945 945.892029,433.003876 942.216919,432.868591 
z"/>
<path fill="#000000" opacity="1.000000" stroke="none" 
	d="
M527.427124,629.246765 
	C524.795776,638.634277 521.567200,647.365051 517.278442,655.676819 
	C515.138672,659.823792 512.858032,663.909302 509.498077,667.229736 
	C507.859222,668.849304 506.104584,670.910828 503.491974,669.483582 
	C500.944519,668.092102 501.473114,665.362122 501.894867,663.169983 
	C503.036224,657.237671 505.762207,651.844238 508.313293,646.431946 
	C513.072998,636.333862 519.921448,627.158325 523.962830,616.930176 
	C527.724609,607.409851 534.399353,600.632324 540.064758,592.812317 
	C544.850647,586.206360 549.167175,579.215698 555.377380,573.796875 
	C558.196167,571.337280 561.764709,567.733643 565.317078,570.995850 
	C568.859985,574.249390 565.033630,577.699646 563.011047,580.525024 
	C557.051880,588.849365 549.293091,595.367310 540.996948,601.423401 
	C542.590576,603.875427 545.756958,601.874390 547.274048,604.223083 
	C546.823303,605.649841 545.397217,605.483948 544.516174,605.223389 
	C539.133606,603.631226 536.941284,607.109680 534.324829,610.820679 
	C530.451965,616.313904 529.233093,622.637878 527.427124,629.246765 
M508.423279,657.838501 
	C507.715088,659.911682 506.566742,661.933655 507.341705,664.456604 
	C513.772278,659.950806 524.703491,636.205017 525.318481,625.538391 
	C518.952942,635.922241 513.309692,646.258057 508.423279,657.838501 
M560.748596,578.270996 
	C561.251404,576.811890 562.549866,575.359619 560.448242,573.453125 
	C554.209351,579.262695 550.160950,586.507385 546.022583,593.708923 
	C551.730774,589.616455 556.925537,585.077209 560.748596,578.270996 
z"/>
<path fill="#000000" opacity="1.000000" stroke="none" 
	d="
M654.885559,604.962280 
	C656.017151,602.775696 657.691711,601.232727 657.962708,599.135376 
	C656.186584,597.213135 653.452637,598.911316 651.942505,597.078979 
	C652.116150,596.645447 652.250854,596.109375 652.339294,596.116943 
	C658.871582,596.672852 663.180115,593.585266 666.234131,588.040283 
	C667.220825,586.248840 669.011536,585.221252 671.300598,586.286743 
	C671.916992,589.962097 667.688232,591.516663 667.854980,595.212158 
	C672.279053,596.558655 677.054077,594.840454 682.015503,596.435669 
	C678.932983,599.091492 675.637146,598.193909 672.834717,597.865540 
	C667.100891,597.193604 663.313354,598.992310 660.895142,604.340698 
	C659.220520,608.044250 656.343750,611.178589 655.100098,615.465759 
	C663.773682,614.215393 665.470642,603.760315 674.108521,601.391113 
	C673.248413,607.662903 668.200806,610.619080 667.185913,616.209045 
	C671.912659,614.692139 674.597839,611.632996 677.139709,608.463074 
	C680.427429,604.363037 684.376038,601.565796 689.845520,601.653015 
	C694.362976,601.724976 696.264221,604.229614 695.184875,608.499939 
	C693.746521,614.190613 685.745850,619.719177 679.873169,619.355957 
	C677.211060,619.191284 675.747742,617.509949 673.989929,615.664062 
	C671.103333,617.158447 668.584778,619.625793 664.959717,619.227966 
	C663.029907,619.016174 662.246887,617.514282 661.160583,616.275024 
	C657.148132,617.058105 653.185974,622.631958 649.019836,616.311768 
	C646.545105,616.936707 644.661499,619.189819 641.846863,619.280151 
	C637.837402,619.408875 636.009827,617.211060 637.823303,613.749878 
	C639.668884,610.227539 641.962158,606.922607 644.249817,603.655823 
	C645.489685,601.885376 647.280945,601.177368 649.628235,602.578430 
	C648.625488,607.658203 643.408447,610.477539 642.787842,616.220581 
	C648.444519,613.991333 651.926941,610.030457 654.885559,604.962280 
M680.670654,612.301086 
	C680.246826,613.726929 679.581970,615.361511 681.133789,616.346924 
	C682.778320,617.391174 684.338867,616.359558 685.606689,615.271240 
	C688.045837,613.177490 689.549683,610.430542 690.543518,607.421387 
	C690.899719,606.342834 691.132935,605.072571 690.078979,604.197754 
	C688.729919,603.078186 687.598206,604.137634 686.522644,604.811279 
	C683.912170,606.446411 682.345886,608.958679 680.670654,612.301086 
z"/>
<path fill="#000000" opacity="1.000000" stroke="none" 
	d="
M598.327637,699.939087 
	C606.991272,697.828491 613.450623,701.248718 615.538879,708.722534 
	C617.481689,715.675537 613.568176,722.519226 606.421509,724.666138 
	C600.210938,726.531860 593.514648,723.237793 590.885925,717.023865 
	C588.082275,710.396423 590.631775,704.287354 598.327637,699.939087 
z"/>
<path fill="#000000" opacity="1.000000" stroke="none" 
	d="
M486.302551,756.366455 
	C485.864319,748.673523 488.621887,744.066528 494.683411,741.799072 
	C500.003418,739.808960 506.045044,741.504333 509.453949,745.943787 
	C513.138611,750.742310 513.265259,756.725281 509.628479,761.707825 
	C506.620636,765.828796 502.333710,767.607361 497.410889,766.905579 
	C491.605194,766.078064 487.847839,762.556030 486.302551,756.366455 
z"/>
<path fill="#000000" opacity="1.000000" stroke="none" 
	d="
M373.746887,763.786621 
	C371.546783,755.629150 374.535950,749.278076 381.391602,746.895691 
	C388.131165,744.553772 395.284576,747.639648 397.929474,754.030029 
	C400.595093,760.470337 397.722412,767.808594 391.357971,770.817627 
	C384.659332,773.984497 378.065491,771.476196 373.746887,763.786621 
z"/>
<path fill="#000000" opacity="1.000000" stroke="none" 
	d="
M462.669159,751.288818 
	C472.754150,746.689392 483.505249,755.669556 480.790619,766.120544 
	C479.225647,772.145386 474.025726,776.170837 468.077515,776.166321 
	C462.570770,776.162109 457.226746,772.178772 455.761475,766.986206 
	C453.907898,760.417664 455.969910,755.529968 462.669159,751.288818 
z"/>
<path fill="#000000" opacity="1.000000" stroke="none" 
	d="
M428.675201,762.388916 
	C422.251648,761.018372 418.653137,757.260071 417.833618,751.182678 
	C417.132568,745.983948 419.005798,741.620667 423.503082,738.779053 
	C428.290314,735.754272 433.274658,735.850342 438.070740,738.860779 
	C442.911438,741.899170 444.952759,748.102783 443.143616,753.778137 
	C441.345184,759.419922 436.319122,762.506653 428.675201,762.388916 
z"/>
<path fill="#000000" opacity="1.000000" stroke="none" 
	d="
M580.728394,746.249390 
	C579.966797,754.283936 576.647827,758.471680 570.239319,759.934631 
	C565.027832,761.124329 559.334412,758.673401 556.601074,753.907959 
	C553.891296,749.183533 553.883545,744.391907 556.873718,739.785095 
	C559.631653,735.535950 565.180298,733.467102 570.446045,734.551270 
	C576.611267,735.820679 579.795654,739.802612 580.728394,746.249390 
z"/>
<path fill="#000000" opacity="1.000000" stroke="none" 
	d="
M401.208557,808.941162 
	C393.241608,806.976135 389.120270,802.565063 388.897339,796.140625 
	C388.714111,790.858093 392.230896,785.801819 397.462921,783.825378 
	C404.572723,781.139648 411.927887,784.637390 414.300964,791.832581 
	C416.636139,798.912720 412.757568,806.229126 405.519135,808.296692 
	C404.251984,808.658569 402.912018,808.765503 401.208557,808.941162 
z"/>
<path fill="#000000" opacity="1.000000" stroke="none" 
	d="
M460.940002,712.481934 
	C468.804993,717.289429 471.001709,724.516724 466.951965,731.164490 
	C463.156464,737.395081 454.905884,739.300354 448.657471,735.389221 
	C443.557800,732.197205 441.380676,725.371887 443.632050,719.634888 
	C446.197327,713.097900 452.266022,710.479736 460.940002,712.481934 
z"/>
<path fill="#000000" opacity="1.000000" stroke="none" 
	d="
M416.377808,737.542603 
	C409.166229,737.742554 404.422241,735.089539 402.231812,729.922363 
	C400.202423,725.135010 401.305969,719.086487 404.846680,715.591309 
	C408.702881,711.784668 414.615387,710.707764 419.611908,712.901978 
	C424.352386,714.983643 427.490692,720.046082 427.278625,725.269043 
	C427.033783,731.299561 423.480042,735.423096 416.377808,737.542603 
z"/>
<path fill="#000000" opacity="1.000000" stroke="none" 
	d="
M334.336182,740.054199 
	C331.168823,747.284607 326.147888,750.559509 320.103180,749.666565 
	C313.943542,748.756714 309.701660,744.737061 308.840118,738.754578 
	C308.088440,733.534912 309.849548,729.229065 314.258270,726.269104 
	C318.945343,723.122314 323.921478,722.795715 328.716553,725.932068 
	C333.640533,729.152710 335.519531,733.846252 334.336182,740.054199 
z"/>
<path fill="#000000" opacity="1.000000" stroke="none" 
	d="
M639.565186,709.720581 
	C646.779236,703.186951 654.765564,703.244385 659.854919,709.569580 
	C664.542236,715.395203 663.577576,723.477783 657.643250,728.100769 
	C652.857849,731.828613 645.661987,731.618286 641.130737,727.618225 
	C636.241028,723.301697 635.578796,716.870117 639.565186,709.720581 
z"/>
<path fill="#000000" opacity="1.000000" stroke="none" 
	d="
M342.969482,705.375305 
	C354.127930,703.508545 362.390533,711.240784 359.844574,720.653137 
	C358.129456,726.993774 353.248657,730.645569 346.644623,730.529114 
	C340.785004,730.425903 335.870148,726.484924 334.399139,720.710083 
	C332.797119,714.420898 335.651459,709.129761 342.969482,705.375305 
z"/>
<path fill="#000000" opacity="1.000000" stroke="none" 
	d="
M372.676819,711.874390 
	C373.134491,703.196106 377.625763,698.702271 385.456085,698.651855 
	C392.858002,698.604187 397.980743,703.259094 398.316620,710.337830 
	C398.674438,717.878967 394.041992,723.564697 386.977448,724.255249 
	C379.332764,725.002441 374.039551,720.577820 372.676819,711.874390 
z"/>
<path fill="#000000" opacity="1.000000" stroke="none" 
	d="
M669.639526,726.430176 
	C678.346008,722.391907 686.217041,725.078552 688.935913,732.697937 
	C691.600220,740.164673 687.530945,747.712891 679.721680,749.789429 
	C674.078064,751.290100 668.099670,748.652039 665.333374,743.440308 
	C662.137146,737.418640 663.522461,731.587280 669.639526,726.430176 
z"/>
<path fill="#000000" opacity="1.000000" stroke="none" 
	d="
M530.389038,728.374084 
	C524.333435,733.345886 517.872498,733.747559 512.902832,729.728088 
	C508.090546,725.835938 506.476471,719.237488 509.073669,714.074158 
	C512.630676,707.002625 521.113037,704.395752 527.710205,708.346558 
	C534.704590,712.535400 535.923706,720.731506 530.389038,728.374084 
z"/>
<path fill="#000000" opacity="1.000000" stroke="none" 
	d="
M714.039062,748.652832 
	C719.276367,752.825562 721.294250,757.826538 719.098450,763.901428 
	C717.324951,768.808044 713.779846,771.857727 708.356628,772.322021 
	C702.651733,772.810486 698.227844,770.774597 695.461243,765.657227 
	C692.812561,760.757935 693.267822,755.997192 696.604492,751.603882 
	C699.909607,747.252136 705.508911,745.592957 710.986511,747.202942 
	C711.932190,747.480835 712.797607,748.031799 714.039062,748.652832 
z"/>
<path fill="#000000" opacity="1.000000" stroke="none" 
	d="
M754.108154,739.959656 
	C748.060181,745.791809 742.656433,746.698914 736.827515,743.140808 
	C732.035461,740.215759 729.602905,734.213440 731.144531,728.877808 
	C732.674500,723.582397 736.202026,720.323792 741.626831,719.391968 
	C746.876099,718.490112 751.255554,720.390442 754.233276,724.683899 
	C757.580322,729.509888 757.554382,734.638611 754.108154,739.959656 
z"/>
<path fill="#000000" opacity="1.000000" stroke="none" 
	d="
M728.573608,678.311829 
	C736.291260,680.210754 740.679810,685.652588 740.003113,692.083801 
	C739.324097,698.536072 733.806396,703.807007 727.415100,704.108765 
	C721.234009,704.400574 715.325317,699.401978 714.153015,692.889343 
	C712.730408,684.986450 718.698303,678.753113 728.573608,678.311829 
z"/>
<path fill="#000000" opacity="1.000000" stroke="none" 
	d="
M809.357056,654.493896 
	C817.447021,656.948730 821.343323,662.940857 819.667480,669.827209 
	C818.053223,676.460693 811.474182,681.083923 805.243042,679.963562 
	C798.493164,678.749939 793.485718,672.601624 794.041199,666.209534 
	C794.704285,658.580078 800.365295,654.108765 809.357056,654.493896 
z"/>
<path fill="#000000" opacity="1.000000" stroke="none" 
	d="
M625.081726,750.592285 
	C625.864563,755.944458 624.700867,760.270264 620.748047,763.543579 
	C615.179382,768.155090 606.699524,767.477844 602.354797,762.149048 
	C597.802856,756.566101 598.788452,747.561401 604.408081,743.389221 
	C610.411133,738.932312 618.491272,740.117920 622.972717,746.209412 
	C623.841431,747.390198 624.326233,748.853333 625.081726,750.592285 
z"/>
<path fill="#000000" opacity="1.000000" stroke="none" 
	d="
M362.878387,751.437988 
	C365.317566,757.244263 365.400360,762.500061 360.926910,766.942078 
	C357.128754,770.713501 352.614258,772.301392 347.308868,770.312134 
	C342.076965,768.350525 338.874146,764.019897 338.695007,758.687195 
	C338.504974,753.031006 341.168549,748.610107 346.152100,746.310486 
	C351.501862,743.841858 356.462311,744.680176 360.765015,748.830994 
	C361.475616,749.516479 362.045532,750.347778 362.878387,751.437988 
z"/>
<path fill="#000000" opacity="1.000000" stroke="none" 
	d="
M667.433472,757.272461 
	C667.092896,765.103271 662.085632,770.688904 655.417786,771.080994 
	C648.913086,771.463501 642.706177,766.216248 641.821106,759.586609 
	C640.895813,752.655701 645.374695,746.687195 652.655701,745.148682 
	C659.877563,743.622742 666.438965,748.840088 667.433472,757.272461 
z"/>
<path fill="#000000" opacity="1.000000" stroke="none" 
	d="
M542.337097,765.665710 
	C546.890625,771.721863 547.398376,776.931335 544.187683,782.022766 
	C541.409302,786.428711 535.721558,788.909363 530.859070,787.835754 
	C525.149048,786.575134 521.092224,782.285156 520.419434,776.536804 
	C519.800659,771.249634 521.832642,767.007202 526.325989,764.246460 
	C531.741943,760.918701 537.074280,761.460632 542.337097,765.665710 
z"/>
<path fill="#000000" opacity="1.000000" stroke="none" 
	d="
M287.506226,713.304626 
	C283.525238,706.234497 283.832672,700.403564 288.150177,696.056152 
	C292.212006,691.966248 298.763336,690.930542 303.776917,693.722290 
	C308.615753,696.416809 310.785675,700.597839 310.380951,706.145386 
	C309.985992,711.558960 306.974243,715.117981 302.211243,717.114990 
	C296.659271,719.442871 291.816437,717.896240 287.506226,713.304626 
z"/>
<path fill="#000000" opacity="1.000000" stroke="none" 
	d="
M759.247131,719.677246 
	C753.065552,709.538208 757.898621,699.004150 768.516357,698.649902 
	C774.877869,698.437622 779.242004,701.225647 781.307495,706.821533 
	C783.232971,712.038147 781.712280,717.693787 777.446350,721.181946 
	C772.734924,725.034485 766.968018,725.311401 761.766357,721.883667 
	C760.944031,721.341797 760.249146,720.606506 759.247131,719.677246 
z"/>
<path fill="#000000" opacity="1.000000" stroke="none" 
	d="
M259.237488,679.307983 
	C252.215134,677.603333 248.416534,673.810486 247.810043,668.095215 
	C247.226959,662.600708 249.447601,658.377991 254.094376,655.498840 
	C258.716522,652.634949 264.623871,653.113159 269.002289,656.539795 
	C273.117676,659.760620 274.743744,665.727173 272.931000,670.955200 
	C271.046936,676.388855 266.678497,679.145203 259.237488,679.307983 
z"/>
<path fill="#000000" opacity="1.000000" stroke="none" 
	d="
M216.553772,622.137634 
	C214.614502,615.901978 215.175735,610.543091 220.291092,606.484314 
	C224.722244,602.968323 230.470551,602.763000 235.242172,605.671265 
	C239.731552,608.407532 242.104218,613.722473 241.171265,618.953186 
	C240.290085,623.893616 236.164520,628.225403 231.416595,629.195435 
	C225.048706,630.496582 220.642059,628.486511 216.553772,622.137634 
z"/>
<path fill="#000000" opacity="1.000000" stroke="none" 
	d="
M651.890015,795.163025 
	C656.172058,801.085449 656.495300,806.793884 653.061829,811.509827 
	C649.861084,815.906006 644.267151,818.043823 639.531921,816.680298 
	C634.039368,815.098572 630.302856,811.025940 629.742310,805.957520 
	C629.115540,800.290344 631.160156,795.844543 636.075073,792.919556 
	C641.259155,789.834534 646.104858,790.519592 651.890015,795.163025 
z"/>
<path fill="#000000" opacity="1.000000" stroke="none" 
	d="
M445.892426,796.503052 
	C441.294281,804.083008 434.048401,806.442383 427.591370,802.766174 
	C421.365662,799.221619 419.174103,791.328735 422.691467,785.119202 
	C425.948975,779.368530 432.917114,777.009399 439.086334,779.568542 
	C445.389160,782.183167 448.068665,788.559753 445.892426,796.503052 
z"/>
<path fill="#000000" opacity="1.000000" stroke="none" 
	d="
M311.598816,670.129578 
	C307.966339,678.455078 300.776489,681.661560 293.717285,678.432617 
	C287.248291,675.473511 284.332977,667.631287 287.300232,661.170349 
	C290.233215,654.783997 298.097839,651.919678 304.637024,654.856262 
	C310.228333,657.367188 312.798706,662.766602 311.598816,670.129578 
z"/>
<path fill="#000000" opacity="1.000000" stroke="none" 
	d="
M720.303833,722.294312 
	C720.855835,729.154724 718.029907,733.609192 712.190613,736.126038 
	C707.261292,738.250793 701.896240,736.964539 698.088074,732.947815 
	C694.568054,729.234985 693.637573,723.367188 695.808411,718.571472 
	C697.867065,714.023438 703.410889,710.673035 708.292419,711.026672 
	C714.257019,711.458801 718.459778,715.261780 720.303833,722.294312 
z"/>
<path fill="#000000" opacity="1.000000" stroke="none" 
	d="
M594.360168,759.563843 
	C600.906372,761.296326 604.327759,765.666199 605.067871,771.652649 
	C605.679199,776.596375 603.148315,780.632935 598.845337,783.271362 
	C594.151550,786.149292 589.402405,786.022522 584.804382,783.014099 
	C580.183960,779.991028 578.123291,773.969543 579.754028,768.580872 
	C581.592468,762.505554 586.459290,759.398132 594.360168,759.563843 
z"/>
<path fill="#000000" opacity="1.000000" stroke="none" 
	d="
M662.121460,771.809937 
	C669.636658,769.265381 675.162964,770.484497 678.632324,775.201172 
	C682.161011,779.998291 682.265991,786.424500 678.680298,790.964966 
	C675.446350,795.059998 671.145447,796.960327 665.940674,795.903015 
	C660.796143,794.858032 657.133423,791.713257 655.973206,786.576965 
	C654.620300,780.587708 656.090393,775.354797 662.121460,771.809937 
z"/>
<path fill="#000000" opacity="1.000000" stroke="none" 
	d="
M760.909851,656.766479 
	C768.165771,652.648132 773.969910,653.068420 778.509033,657.783875 
	C782.589783,662.023132 783.278137,668.465393 780.182434,673.444214 
	C776.153992,679.923279 767.383301,681.619141 761.441162,677.067932 
	C754.930908,672.081543 754.590881,663.906433 760.909851,656.766479 
z"/>
<path fill="#000000" opacity="1.000000" stroke="none" 
	d="
M488.404022,798.364136 
	C484.522217,789.717529 486.996460,782.145874 494.295471,779.366821 
	C501.765717,776.522522 509.570282,780.298035 511.765747,787.817993 
	C513.399170,793.412842 510.655579,799.816040 505.408813,802.653992 
	C499.520355,805.839111 493.905212,804.509033 488.404022,798.364136 
z"/>
<path fill="#000000" opacity="1.000000" stroke="none" 
	d="
M270.329956,367.331604 
	C264.232910,371.920746 258.715851,372.511444 253.990814,369.327209 
	C249.542801,366.329681 247.150177,360.717499 248.281281,355.934845 
	C249.567032,350.498291 253.511948,346.633362 258.759949,345.853455 
	C264.171875,345.049103 268.697083,346.669861 271.711761,351.375031 
	C275.191681,356.806427 274.559479,362.084381 270.329956,367.331604 
z"/>
<path fill="#000000" opacity="1.000000" stroke="none" 
	d="
M285.834656,314.832886 
	C286.599152,307.336060 289.970398,303.084595 295.821350,301.792206 
	C301.419952,300.555573 306.724304,302.672058 309.697571,307.328857 
	C312.559509,311.811279 312.319092,317.944427 308.879425,322.267395 
	C305.731537,326.223633 301.434357,328.005554 296.513763,326.960388 
	C290.344208,325.649963 286.857300,321.476685 285.834656,314.832886 
z"/>
<path fill="#000000" opacity="1.000000" stroke="none" 
	d="
M833.615356,629.241089 
	C825.613098,629.235962 821.231506,626.429321 819.289246,620.373352 
	C817.637817,615.224243 819.307007,609.655029 823.451172,606.486572 
	C828.097290,602.934387 834.093201,602.638123 838.829224,605.805908 
	C843.309631,608.802795 844.982178,613.150818 844.264893,618.339539 
	C843.442444,624.289246 839.747131,627.746643 833.615356,629.241089 
z"/>
<path fill="#000000" opacity="1.000000" stroke="none" 
	d="
M541.697510,810.699463 
	C546.770935,806.638672 551.932861,805.880005 557.255676,809.085999 
	C562.209045,812.069397 564.039795,816.791870 563.199951,822.351807 
	C562.367859,827.861023 558.701904,831.076782 553.524902,832.634888 
	C548.830750,834.047668 542.920898,831.742920 539.967651,827.461060 
	C536.507080,822.443665 537.011108,816.744507 541.697510,810.699463 
z"/>
<path fill="#000000" opacity="1.000000" stroke="none" 
	d="
M469.984589,795.378052 
	C475.766632,793.920166 480.705872,794.529785 484.412537,799.089905 
	C487.599976,803.011108 488.280396,807.509338 486.428558,812.226013 
	C484.307007,817.629578 479.115082,820.741943 473.360992,820.265808 
	C467.757812,819.802185 462.857605,815.466064 461.845520,810.076172 
	C460.644623,803.680603 463.176788,798.930054 469.984589,795.378052 
z"/>
<path fill="#000000" opacity="1.000000" stroke="none" 
	d="
M378.151367,359.350861 
	C370.408722,358.049866 365.495270,352.214233 366.162994,345.609955 
	C366.852753,338.787933 373.122681,333.360260 379.826996,333.781433 
	C386.727783,334.214966 392.317474,340.225250 392.129669,347.009888 
	C391.938629,353.913727 386.348572,359.011993 378.151367,359.350861 
z"/>
<path fill="#000000" opacity="1.000000" stroke="none" 
	d="
M508.267822,810.003479 
	C514.819275,806.562561 520.494019,806.978699 524.716309,810.955811 
	C528.641174,814.652710 529.814087,820.678955 527.573547,825.636902 
	C525.296997,830.674561 520.125061,833.864868 514.719971,833.226318 
	C509.315826,832.587952 505.507050,829.641235 503.661133,824.448730 
	C501.615845,818.695374 503.518616,814.065613 508.267822,810.003479 
z"/>
<path fill="#000000" opacity="1.000000" stroke="none" 
	d="
M582.540405,819.104553 
	C583.572205,811.156006 589.423889,806.111633 596.375549,806.802856 
	C603.031799,807.464600 608.428894,813.470093 608.229858,819.993347 
	C608.019897,826.874756 602.671753,832.186218 595.764526,832.373108 
	C587.904724,832.585815 583.178528,827.986511 582.540405,819.104553 
z"/>
<path fill="#000000" opacity="1.000000" stroke="none" 
	d="
M567.082520,804.298706 
	C559.189636,802.998779 554.840637,798.515869 554.662964,791.928711 
	C554.486084,785.370605 558.512268,780.132385 564.680908,778.894592 
	C571.042908,777.618042 576.868652,780.603821 579.381653,786.429077 
	C583.009766,794.839478 577.349426,803.359314 567.082520,804.298706 
z"/>
<path fill="#000000" opacity="1.000000" stroke="none" 
	d="
M618.450439,808.130188 
	C610.277405,808.485229 605.540894,805.742310 603.387878,799.724792 
	C601.563660,794.626343 603.270996,788.692444 607.631592,785.432739 
	C612.033325,782.142395 616.813110,781.692627 621.691345,784.205994 
	C626.666199,786.769104 628.717163,791.101624 628.333496,796.569458 
	C627.910767,802.594360 624.469788,806.243225 618.450439,808.130188 
z"/>
<path fill="#000000" opacity="1.000000" stroke="none" 
	d="
M781.886658,326.433716 
	C776.454956,333.381683 770.445618,335.138062 764.418457,331.825043 
	C758.904297,328.794006 756.305786,322.397278 758.197205,316.510040 
	C760.357361,309.786469 767.832825,306.025909 774.619507,308.248749 
	C781.883179,310.627869 784.937195,317.929169 781.886658,326.433716 
z"/>
<path fill="#000000" opacity="1.000000" stroke="none" 
	d="
M342.659393,321.791107 
	C350.527710,324.201447 354.499390,329.164673 353.922150,335.389252 
	C353.339569,341.671387 348.424316,346.716766 342.337616,347.280487 
	C334.934235,347.966187 328.495758,342.488708 328.023010,335.102539 
	C327.545044,327.634979 333.544189,322.003021 342.659393,321.791107 
z"/>
<path fill="#000000" opacity="1.000000" stroke="none" 
	d="
M695.300049,314.901825 
	C693.815125,323.350403 687.087158,328.497375 680.135742,326.923126 
	C672.730713,325.246094 668.198486,318.154510 670.003235,311.068848 
	C671.752075,304.202667 678.970764,300.023254 685.973572,301.822540 
	C691.529358,303.250000 694.753601,307.621857 695.300049,314.901825 
z"/>
<path fill="#000000" opacity="1.000000" stroke="none" 
	d="
M621.829163,309.766876 
	C617.046753,314.059784 612.003845,315.455048 606.432495,312.518005 
	C601.760803,310.055206 599.502197,306.049011 599.593750,300.669739 
	C599.687256,295.181366 602.467102,291.563141 607.233337,289.383728 
	C612.013855,287.197754 617.997070,288.346100 621.494812,292.207916 
	C624.973877,296.049164 626.302979,300.547668 624.277832,305.588287 
	C623.726990,306.959198 622.822754,308.188110 621.829163,309.766876 
z"/>
<path fill="#000000" opacity="1.000000" stroke="none" 
	d="
M625.827942,281.667908 
	C623.227417,273.309509 625.587585,267.203064 632.285339,264.158325 
	C637.829590,261.637939 644.685486,263.719574 648.029602,268.938782 
	C651.796448,274.817627 650.226135,282.762177 644.535034,286.618500 
	C638.368469,290.796997 631.125916,289.006927 625.827942,281.667908 
z"/>
<path fill="#000000" opacity="1.000000" stroke="none" 
	d="
M659.679810,240.739517 
	C652.938354,235.341049 651.378784,229.188293 654.912354,223.056519 
	C657.964478,217.760040 664.851013,215.351074 670.532654,217.592331 
	C677.323669,220.271225 680.545532,227.188065 678.122009,233.885239 
	C675.482727,241.178360 668.287537,243.982651 659.679810,240.739517 
z"/>
<path fill="#000000" opacity="1.000000" stroke="none" 
	d="
M716.402588,319.912170 
	C709.230225,315.910156 706.655273,310.510345 708.619263,304.186493 
	C710.330933,298.674927 715.923767,294.629547 721.442688,294.911224 
	C727.453064,295.217987 732.589905,300.070709 733.618713,306.270721 
	C735.031616,314.785461 726.130188,323.255554 716.402588,319.912170 
z"/>
<path fill="#000000" opacity="1.000000" stroke="none" 
	d="
M311.654480,293.875183 
	C312.110321,285.354950 316.864899,280.627838 324.517731,280.647308 
	C331.405304,280.664886 336.839966,285.884186 337.223846,292.850006 
	C337.582306,299.354340 332.154419,305.573242 325.554871,306.219543 
	C318.339996,306.926086 312.943787,302.299225 311.654480,293.875183 
z"/>
<path fill="#000000" opacity="1.000000" stroke="none" 
	d="
M641.386169,244.583435 
	C635.966187,247.960007 630.945129,247.815933 626.259033,244.054428 
	C622.165649,240.768692 620.445007,236.438126 621.654480,231.203812 
	C622.914917,225.748749 626.557312,222.664841 631.883057,221.508652 
	C637.236511,220.346436 643.137329,223.341629 645.622375,228.333832 
	C648.430664,233.975388 647.142883,239.227127 641.386169,244.583435 
z"/>
<path fill="#000000" opacity="1.000000" stroke="none" 
	d="
M440.176971,225.862213 
	C442.891541,219.950211 447.261230,216.794296 453.306946,217.135452 
	C458.205353,217.411865 462.079071,220.049820 464.143250,224.801926 
	C466.379913,229.951111 465.368347,234.603043 461.770996,238.686508 
	C458.361145,242.557144 452.316986,243.865662 447.596039,241.813232 
	C442.574890,239.630341 439.715393,235.835892 439.696930,230.208603 
	C439.692566,228.887894 439.910492,227.566467 440.176971,225.862213 
z"/>
<path fill="#000000" opacity="1.000000" stroke="none" 
	d="
M557.447876,216.839111 
	C549.550964,219.180771 543.725403,216.954559 540.703064,210.745773 
	C538.052795,205.301285 539.583252,198.697235 544.342407,195.041931 
	C550.082520,190.633179 558.798584,192.046082 562.818909,198.037064 
	C567.214844,204.587814 565.228516,211.970718 557.447876,216.839111 
z"/>
<path fill="#000000" opacity="1.000000" stroke="none" 
	d="
M513.237793,232.337616 
	C513.149353,240.195847 509.886017,244.749481 503.446472,246.469452 
	C498.292358,247.846100 492.614899,245.507065 489.709564,240.810150 
	C486.648224,235.861053 487.045959,229.854797 490.929016,225.564804 
	C494.019867,222.150085 497.959717,220.505615 502.567932,221.374542 
	C508.404938,222.475159 511.844818,226.198227 513.237793,232.337616 
z"/>
<path fill="#000000" opacity="1.000000" stroke="none" 
	d="
M353.095215,255.980621 
	C358.492737,252.204575 363.672607,252.092438 368.698639,255.725449 
	C372.796875,258.687775 374.748749,262.901093 373.829620,267.906006 
	C372.809082,273.463196 369.243713,277.018799 363.773773,278.502533 
	C358.742096,279.867371 352.988678,277.284515 350.141815,272.506744 
	C346.929169,267.115112 347.782471,261.861145 353.095215,255.980621 
z"/>
<path fill="#000000" opacity="1.000000" stroke="none" 
	d="
M556.547119,275.044739 
	C555.179199,267.411438 558.456543,261.624725 565.092590,259.370453 
	C570.901123,257.397308 577.453430,260.172180 580.224182,265.778564 
	C583.075134,271.547363 581.533936,278.216705 576.517944,281.817352 
	C571.116577,285.694641 564.042419,285.220856 559.756226,280.481232 
	C558.454224,279.041595 557.678162,277.126373 556.547119,275.044739 
z"/>
<path fill="#000000" opacity="1.000000" stroke="none" 
	d="
M643.020752,307.743805 
	C639.544189,299.956818 641.340698,293.084198 647.440735,289.713837 
	C653.356140,286.445496 660.623230,288.016327 664.310364,293.360413 
	C668.125977,298.890686 666.980042,306.884338 661.798706,310.880615 
	C656.114258,315.265015 648.501160,314.113708 643.020752,307.743805 
z"/>
<path fill="#000000" opacity="1.000000" stroke="none" 
	d="
M469.122803,301.288239 
	C478.762146,306.676727 480.748566,316.380402 473.862885,322.759033 
	C469.489563,326.810394 463.301849,327.426208 458.212372,324.316650 
	C453.596039,321.496155 451.191406,315.669159 452.538391,310.567566 
	C454.087585,304.700317 458.800415,300.887543 464.799713,300.753448 
	C466.111725,300.724091 467.430542,300.998840 469.122803,301.288239 
z"/>
<path fill="#000000" opacity="1.000000" stroke="none" 
	d="
M789.881958,368.561584 
	C792.739075,361.545990 797.570801,358.210785 803.549316,358.770874 
	C808.831604,359.265717 813.670349,363.358887 814.986206,368.445526 
	C816.359314,373.753387 813.963135,379.672272 809.054932,382.575226 
	C804.709351,385.145386 800.148987,385.144257 795.822754,382.622101 
	C790.613586,379.585144 789.125061,374.708435 789.881958,368.561584 
z"/>
<path fill="#000000" opacity="1.000000" stroke="none" 
	d="
M484.361328,211.149261 
	C480.062439,217.810730 474.785339,219.991684 468.569702,217.949295 
	C463.362244,216.238190 459.589844,210.778595 459.811310,205.273865 
	C460.039307,199.607300 464.179932,194.713928 470.080109,193.215088 
	C474.769409,192.023819 478.673431,193.776657 481.866730,196.971161 
	C485.782501,200.888443 486.375763,205.670563 484.361328,211.149261 
z"/>
<path fill="#000000" opacity="1.000000" stroke="none" 
	d="
M580.435242,228.858368 
	C582.990356,237.814651 579.531250,244.602173 571.637634,246.776672 
	C564.996826,248.606049 558.043396,244.113693 556.258667,236.840988 
	C554.856262,231.126114 557.991272,225.126663 563.687683,222.623810 
	C569.979370,219.859406 575.939514,221.973770 580.435242,228.858368 
z"/>
<path fill="#000000" opacity="1.000000" stroke="none" 
	d="
M479.916351,265.300446 
	C471.897186,267.140961 465.669464,263.723145 463.576477,256.650146 
	C461.716614,250.364883 465.053192,243.725906 471.276611,241.328629 
	C477.594147,238.895111 484.970581,241.895218 487.610046,247.971649 
	C490.534393,254.703842 487.746124,261.275299 479.916351,265.300446 
z"/>
<path fill="#000000" opacity="1.000000" stroke="none" 
	d="
M612.624268,263.659119 
	C610.709778,271.927368 604.501465,276.494537 597.517456,275.118408 
	C591.264404,273.886322 586.302612,267.323669 587.036743,261.256348 
	C587.885559,254.242188 593.936890,249.209229 600.900208,249.726059 
	C607.871765,250.243500 611.935974,254.918732 612.624268,263.659119 
z"/>
<path fill="#000000" opacity="1.000000" stroke="none" 
	d="
M603.908203,225.666656 
	C597.994385,231.578888 592.357605,232.586746 586.699585,229.016312 
	C581.843567,225.951981 579.517578,219.521927 581.342102,214.206177 
	C583.866211,206.852356 591.493591,203.472382 598.682739,206.521942 
	C606.053711,209.648590 608.202087,217.070160 603.908203,225.666656 
z"/>
<path fill="#000000" opacity="1.000000" stroke="none" 
	d="
M459.679993,284.008545 
	C447.908142,286.991119 440.914154,276.204163 443.134705,268.767700 
	C444.810608,263.155182 450.023926,258.883606 455.513672,258.870300 
	C461.106934,258.856720 466.749725,263.211823 468.045074,268.541992 
	C469.595428,274.921478 466.701660,280.475189 459.679993,284.008545 
z"/>
<path fill="#000000" opacity="1.000000" stroke="none" 
	d="
M369.532959,310.546326 
	C363.560211,315.086853 357.614868,315.437347 352.788788,311.789795 
	C348.278259,308.380737 346.455505,302.223724 348.429688,297.065613 
	C350.535767,291.562988 355.981171,288.100769 361.814941,288.779755 
	C366.643585,289.341736 370.179810,291.968109 372.138092,296.396790 
	C374.376648,301.459229 373.437714,306.128784 369.532959,310.546326 
z"/>
<path fill="#000000" opacity="1.000000" stroke="none" 
	d="
M434.016815,211.895538 
	C440.206635,219.411850 439.571442,227.147278 432.673615,232.038879 
	C426.797302,236.206055 418.838593,234.579956 414.766418,228.380157 
	C411.450806,223.332138 412.161285,216.566132 416.450165,212.344940 
	C421.113251,207.755447 427.307983,207.504349 434.016815,211.895538 
z"/>
<path fill="#000000" opacity="1.000000" stroke="none" 
	d="
M400.742920,265.391693 
	C403.147552,258.013916 407.511169,254.558380 413.699615,254.743500 
	C419.344269,254.912369 423.943176,258.582520 425.695374,264.316650 
	C427.224335,269.320129 425.120453,274.974579 420.354218,278.219269 
	C416.113281,281.106384 411.548798,281.165222 407.148132,278.788574 
	C402.066101,276.043945 400.213409,271.449432 400.742920,265.391693 
z"/>
<path fill="#000000" opacity="1.000000" stroke="none" 
	d="
M382.239014,279.232483 
	C388.488464,274.874786 393.992554,274.508331 398.645447,277.892334 
	C403.128662,281.152924 405.159515,286.549835 403.719879,291.480896 
	C402.112030,296.987823 398.354828,300.194885 392.798492,301.160553 
	C388.088593,301.979034 382.865692,299.440216 380.520569,295.213745 
	C377.468140,289.712585 377.800049,284.400818 382.239014,279.232483 
z"/>
<path fill="#000000" opacity="1.000000" stroke="none" 
	d="
M756.446899,280.722290 
	C761.091736,289.034760 759.013550,296.826874 751.539429,300.346375 
	C744.869995,303.487030 736.942810,300.141052 734.373535,293.100708 
	C732.305847,287.435089 734.244385,281.275116 739.088196,278.119293 
	C744.890930,274.338623 750.514526,275.097168 756.446899,280.722290 
z"/>
<path fill="#000000" opacity="1.000000" stroke="none" 
	d="
M387.729431,246.796600 
	C385.636078,238.855011 388.928894,232.384735 395.872284,230.166519 
	C402.447388,228.065964 409.924622,231.878525 411.932922,238.355698 
	C414.025574,245.104767 410.582581,251.995865 403.858887,254.515900 
	C397.767639,256.798889 391.719818,254.025024 387.729431,246.796600 
z"/>
<path fill="#000000" opacity="1.000000" stroke="none" 
	d="
M515.422119,218.174530 
	C507.589905,215.377365 503.930206,210.209167 504.764496,203.652512 
	C505.475281,198.066101 510.439972,193.283951 516.084717,192.748444 
	C523.492737,192.045670 529.964539,197.556381 530.282959,204.838104 
	C530.624878,212.658142 524.618713,218.225357 515.422119,218.174530 
z"/>
<path fill="#000000" opacity="1.000000" stroke="none" 
	d="
M691.902283,274.819214 
	C687.480835,279.283905 682.626038,280.656006 677.117554,278.229004 
	C672.477356,276.184540 669.923462,272.494659 669.656250,267.357513 
	C669.338318,261.242584 671.936584,257.002747 677.353088,254.731888 
	C682.298035,252.658768 687.917542,253.842850 691.530151,257.719055 
	C695.412598,261.884735 696.124634,267.165436 693.479858,272.428040 
	C693.109253,273.165466 692.597595,273.832031 691.902283,274.819214 
z"/>
<path fill="#000000" opacity="1.000000" stroke="none" 
	d="
M708.540894,257.366791 
	C716.049744,253.324097 721.915405,254.091110 726.334839,259.418365 
	C730.259521,264.149200 730.270691,270.713440 726.362183,275.466766 
	C721.624756,281.228149 713.694092,282.025757 708.188293,277.294525 
	C702.147644,272.103699 702.166016,264.280426 708.540894,257.366791 
z"/>
<path fill="#000000" opacity="1.000000" stroke="none" 
	d="
M510.021271,270.080627 
	C515.106873,278.098663 513.340576,286.113586 505.988037,289.816711 
	C499.266113,293.202240 491.523529,290.342773 488.561127,283.380615 
	C486.277039,278.012604 488.000366,271.510529 492.587708,268.188660 
	C497.980316,264.283661 504.099854,264.855194 510.021271,270.080627 
z"/>
<path fill="#000000" opacity="1.000000" stroke="none" 
	d="
M536.635803,237.810669 
	C544.827393,240.445831 548.232483,245.335037 547.306580,252.588165 
	C546.575317,258.316803 541.267029,263.064392 535.341003,263.289673 
	C528.379639,263.554352 522.100708,257.737396 521.806946,250.751495 
	C521.499390,243.436005 527.653809,237.890198 536.635803,237.810669 
z"/>
<path fill="#000000" opacity="1.000000" stroke="none" 
	d="
M537.636230,297.639587 
	C543.332642,293.361908 549.420715,293.028107 554.016357,296.488983 
	C560.317749,301.234344 561.536926,307.605865 557.254272,313.410370 
	C552.835327,319.399536 545.579224,320.569183 539.704407,316.239349 
	C533.520508,311.681763 532.619141,304.611847 537.636230,297.639587 
M542.850830,301.323059 
	C541.563965,304.044678 542.536560,305.908722 545.281860,306.568085 
	C547.176758,307.023224 547.984314,305.522797 547.885498,303.851166 
	C547.717102,301.004303 546.479553,299.442688 542.850830,301.323059 
z"/>
<path fill="#000000" opacity="1.000000" stroke="none" 
	d="
M893.825073,425.816895 
	C893.825256,420.528839 893.711243,415.711975 893.867371,410.903839 
	C893.973694,407.630585 892.931213,405.895966 889.376831,406.007782 
	C887.001465,406.082520 884.611633,405.874573 884.662109,402.419830 
	C884.713745,398.890076 887.219788,399.048584 889.537476,399.026794 
	C895.345642,398.972107 901.154968,398.988098 906.963318,399.038208 
	C909.346069,399.058746 911.225220,399.720734 911.128784,402.717285 
	C911.039612,405.488464 909.134827,406.147797 907.064209,405.921539 
	C902.253174,405.395782 901.087646,407.660217 901.335510,412.008026 
	C901.627747,417.135956 901.427002,422.294525 901.366272,427.438934 
	C901.338135,429.823700 902.057800,432.741119 898.162964,432.917389 
	C894.025574,433.104584 893.736328,430.348846 893.829895,427.287537 
	C893.840027,426.955963 893.827820,426.623718 893.825073,425.816895 
z"/>
<path fill="#000000" opacity="1.000000" stroke="none" 
	d="
M724.128052,611.240112 
	C725.420959,610.066467 725.985718,608.421509 727.821228,608.544250 
	C726.694397,613.013733 720.250549,618.806824 716.069275,619.144470 
	C712.339478,619.445740 710.229309,616.869080 711.856934,613.502991 
	C713.275085,610.570251 715.363220,607.961487 717.434875,604.780396 
	C709.234924,607.561829 705.997070,616.925903 696.721619,619.634888 
	C698.269287,613.062866 703.350281,610.101868 704.410400,604.678894 
	C701.275940,604.914978 700.569031,608.235779 698.001831,608.749390 
	C698.783142,604.951782 702.034729,601.997314 705.531982,601.715271 
	C708.655151,601.463562 710.268677,602.850037 710.109070,606.464233 
	C712.710754,604.941162 714.912170,603.518677 717.235779,602.336548 
	C718.934814,601.472046 720.838623,601.236572 722.280151,602.865845 
	C723.686035,604.454895 722.653625,605.994812 721.786804,607.415527 
	C720.091736,610.193481 717.546021,612.463196 716.357056,616.307556 
	C720.170593,616.023621 721.887512,613.512695 724.128052,611.240112 
z"/>
<path fill="#000000" opacity="1.000000" stroke="none" 
	d="
M508.745361,606.818359 
	C512.146362,603.336243 515.863159,601.287537 520.469360,601.506165 
	C525.195496,601.730347 527.303772,605.162109 525.240906,609.427246 
	C522.715576,614.648987 518.523376,618.060364 512.803650,619.205811 
	C510.390930,619.688965 507.736267,619.757935 505.943359,617.436890 
	C504.090057,615.037598 505.336731,612.666565 506.319885,610.411255 
	C506.840149,609.217712 507.766418,608.201111 508.745361,606.818359 
M513.973755,607.541382 
	C512.929199,609.217773 511.803711,610.850525 510.868286,612.585754 
	C510.232849,613.764526 509.829498,615.202454 511.024231,616.244019 
	C512.200989,617.269836 513.510254,616.649414 514.696899,615.984192 
	C516.805969,614.801819 518.154785,612.903442 519.224731,610.843750 
	C520.310547,608.753540 522.799255,606.087708 520.543579,604.273804 
	C518.213684,602.400208 516.308167,605.557068 513.973755,607.541382 
z"/>
<path fill="#000000" opacity="1.000000" stroke="none" 
	d="
M651.190063,592.896301 
	C650.995483,590.169800 652.331482,589.305420 654.480225,589.761047 
	C655.829468,590.046997 656.357483,591.271851 655.738586,592.432983 
	C654.710938,594.361023 653.166565,594.836426 651.190063,592.896301 
z"/>
</svg>